<?xml version="1.0" encoding="UTF-8"?>
<svg version="1.1" xmlns="http://www.w3.org/2000/svg" width="495" height="468">
<path d="M0 0 C0.33 0 0.66 0 1 0 C1.90830368 30.64683887 -5.47317854 59.1899435 -26.21875 82.4921875 C-32.19726057 88.74436228 -39.14208496 95.74355815 -48 97 C-45.4854329 86.58250772 -38.6735842 78.75817455 -32.25 70.43359375 C-17.65640696 51.34368047 -9.46359464 30.15456025 -2.86425781 7.23266602 C-1.09393215 1.09393215 -1.09393215 1.09393215 0 0 Z " fill="#000000" transform="translate(331,34)"/>
<path d="M0 0 C1.32327637 4.26898949 0.20754255 7.14927107 -1.375 11.1875 C-1.64538086 11.88657471 -1.91576172 12.58564941 -2.19433594 13.3059082 C-13.95217635 42.75621806 -33.25206108 64.12641853 -62.14404297 77.26318359 C-66.49533899 78.99065155 -70.31983295 79.09000321 -75 79 C-68.93669569 69.73251049 -60.63725526 64.02177833 -51.5 58.0625 C-45.11328974 53.89046537 -39.4802366 49.3280078 -34 44 C-33.278125 43.34 -32.55625 42.68 -31.8125 42 C-19.08557103 30.00032411 -9.70655528 14.42278808 0 0 Z " fill="#000000" transform="translate(360,63)"/>
<path d="M0 0 C0.78550552 7.32819177 -0.71092885 11.3919309 -5.125 17.1875 C-5.93263794 18.28106812 -5.93263794 18.28106812 -6.7565918 19.39672852 C-21.60493127 38.99056744 -40.93136531 53.70824108 -65.375 58.6875 C-70.58530626 59.13666433 -75.77402339 59.07723118 -81 59 C-77.84634656 55.62273788 -74.37981184 52.94770326 -70.5625 50.375 C-69.92143311 49.9426001 -69.28036621 49.5102002 -68.61987305 49.06469727 C-63.0892862 45.46340005 -57.30942961 42.67203144 -51.3125 39.9375 C-42.93591025 36.10267765 -36.07984496 31.95132832 -29 26 C-28.15308594 25.35160156 -27.30617188 24.70320313 -26.43359375 24.03515625 C-19.24362377 18.45248209 -12.93579732 12.08315752 -6.57348633 5.58789062 C-5.86603271 4.86666016 -5.1585791 4.14542969 -4.4296875 3.40234375 C-3.79272949 2.74741943 -3.15577148 2.09249512 -2.49951172 1.41772461 C-1 0 -1 0 0 0 Z " fill="#000000" transform="translate(369,96)"/>
<path d="M0 0 C0.97881853 3.10546022 1.00031435 5.26254896 0.3125 8.4375 C0.09013672 9.54931641 0.09013672 9.54931641 -0.13671875 10.68359375 C-2.20695722 16.23857752 -6.6014112 19.51190499 -11.3125 22.8125 C-11.92279053 23.24191895 -12.53308105 23.67133789 -13.16186523 24.11376953 C-28.61900121 34.75987439 -44.33374281 41.14254773 -63.3125 41.25 C-64.21162109 41.270625 -65.11074219 41.29125 -66.03710938 41.3125 C-72.22663207 41.34830346 -77.26670324 40.33022268 -83 38 C-76.0211358 30.53166795 -66.99096045 28.63044844 -57.3125 26.5625 C-35.89161405 21.94435091 -17.89732677 12.56322154 0 0 Z " fill="#000000" transform="translate(371,130)"/>
<path d="M0 0 C5.57083677 5.57083677 6.62498644 16.43420024 7.03515625 24.02734375 C6.85598702 39.1770975 1.10495147 51.69927675 -9.42578125 62.484375 C-13.88300482 66.6157984 -18.51723395 70.05661976 -23.58520508 73.38745117 C-27.59446018 76.06474669 -31.47915953 78.91132227 -35.375 81.75 C-36.94496821 82.89109884 -38.51526672 84.03174342 -40.0859375 85.171875 C-40.7670459 85.6678418 -41.4481543 86.16380859 -42.14990234 86.67480469 C-46.81166518 90.01395073 -46.81166518 90.01395073 -50.375 89.75 C-53.48640622 89.10626078 -56.11922854 88.30944157 -59 87 C-59 86.34 -59 85.68 -59 85 C-56.69 84.01 -54.38 83.02 -52 82 C-56.60803336 78.92797776 -60.32060178 76.49887663 -66 77 C-66.33 78.98 -66.66 80.96 -67 83 C-70.79588866 82.45773019 -72.47211993 80.79872437 -75 78 C-75.928125 78.99 -75.928125 78.99 -76.875 80 C-79 82 -79 82 -81 82 C-80.84402344 80.76765625 -80.68804687 79.5353125 -80.52734375 78.265625 C-77.92663865 60.5759803 -77.92663865 60.5759803 -83 44 C-85.65915095 42.52841069 -85.65915095 42.52841069 -89 42 C-90.62513416 41.62558184 -92.25012927 41.25055974 -93.875 40.875 C-95.24932678 40.58017742 -96.62410383 40.28740942 -98 40 C-99.32 42.31 -100.64 44.62 -102 47 C-104 46 -104 46 -105 43 C-105.3823833 38.33492377 -105.47936179 35.95872359 -103.375 31.75 C-99.86203752 27.68235924 -97.34742467 25.26596437 -91.828125 24.640625 C-89.5294239 24.50781116 -87.2278735 24.41623281 -84.92578125 24.37109375 C-81.60244594 23.94957592 -81.1762291 23.34128018 -79 21 C-68.99698881 19.12787681 -58.88617603 23.391207 -50.3984375 28.30078125 C-46.60806333 30.98614406 -44.95799756 33.84854947 -43 38 C-42.04236448 40.02937684 -41.07974969 42.05579762 -40.10424805 44.07666016 C-39.42326562 45.49735515 -38.75980972 46.92662019 -38.11645508 48.36474609 C-35.89054576 53.08024151 -33.72798893 55.45658119 -29 58 C-25.52674819 59.1577506 -22.63932552 59.06866652 -19 59 C-18.18501438 57.3970947 -17.37310073 55.79262722 -16.5625 54.1875 C-16.11003906 53.29417969 -15.65757812 52.40085938 -15.19140625 51.48046875 C-11.09110566 42.94377737 -12.48056112 32.13928729 -14.5390625 23.14453125 C-15.48385406 18.74884849 -15.7914115 15.41077703 -13.5625 11.4375 C-10.61414648 8.6329686 -7.48291636 6.55594527 -4.0234375 4.4296875 C-1.73827155 2.99680919 -1.73827155 2.99680919 0 0 Z M-77 24 C-77.33 25.32 -77.66 26.64 -78 28 C-79.02480469 27.96519531 -80.04960937 27.93039063 -81.10546875 27.89453125 C-82.46612936 27.86637965 -83.8268078 27.83908096 -85.1875 27.8125 C-86.19780273 27.77479492 -86.19780273 27.77479492 -87.22851562 27.73632812 C-92.75539454 27.65544697 -95.82564283 28.97559849 -99.8125 32.6875 C-100.204375 33.120625 -100.59625 33.55375 -101 34 C-100.67 34.99 -100.34 35.98 -100 37 C-99.030625 37.144375 -98.06125 37.28875 -97.0625 37.4375 C-96.10923828 37.58251953 -96.10923828 37.58251953 -95.13671875 37.73046875 C-92.97888542 38.03017468 -92.97888542 38.03017468 -90.70703125 38.11328125 C-89.55267578 38.18095703 -89.55267578 38.18095703 -88.375 38.25 C-87.66085938 38.27578125 -86.94671875 38.3015625 -86.2109375 38.328125 C-81.8758357 39.64550576 -79.77028384 42.66649787 -77.59228516 46.43701172 C-75.53794658 50.38004966 -73.58499083 54.36897551 -71.63671875 58.36523438 C-67.79778982 66.01816413 -63.28334193 74.4862598 -55 78 C-45.83934836 79.42015689 -38.78585962 77.39618779 -31.36328125 72.12890625 C-26.98133859 68.74489506 -23.36089115 65.4222252 -20 61 C-20.65226562 60.90203125 -21.30453125 60.8040625 -21.9765625 60.703125 C-29.93235451 59.34195705 -35.16983379 56.61633149 -40.375 50.39453125 C-42.12279974 47.8190475 -43.47776738 45.18471931 -44.86254883 42.40283203 C-48.17649521 35.76534985 -50.73362717 30.644523 -58 28 C-59.05058594 27.61585938 -60.10117188 27.23171875 -61.18359375 26.8359375 C-66.61744067 25.02259926 -71.23568965 23.76631174 -77 24 Z " fill="#000000" transform="translate(278,132)"/>
<path d="M0 0 C3.375 -0.125 3.375 -0.125 7 0 C7.66 0.66 8.32 1.32 9 2 C6.74778616 3.36741555 5.47442242 4.04066478 2.8125 3.8125 C2.214375 3.544375 1.61625 3.27625 1 3 C0.67 2.01 0.34 1.02 0 0 Z " fill="#000000" transform="translate(201,162)"/>
<path d="M0 0 C0 4.01973341 -1.2189858 5.75264854 -3.6640625 8.875 C-15.82725692 19.93984576 -36.75803863 22.87842616 -52.5078125 22.3203125 C-62.61835265 21.72708114 -71.22726253 19.01016384 -80 14 C-80 13.67 -80 13.34 -80 13 C-76.08606433 12.29922327 -72.24889259 11.81612515 -68.28125 11.5703125 C-44.52949823 10.01377422 -22.81405166 6.97589007 0 0 Z " fill="#000000" transform="translate(364,167)"/>
<path d="M0 0 C6.57993893 -0.38371134 12.78934813 0.14314464 19.25 1.3125 C19.98694092 1.44543457 20.72388184 1.57836914 21.4831543 1.71533203 C24.8249432 2.33938565 28.11021709 3.02805986 31.40625 3.8671875 C44.68413668 7.12461297 58.42230165 6.26665839 72 6 C63.47876084 14.53534717 57.55881386 17.16948567 45.50366211 17.38061523 C30.23288992 17.34799447 14.72367933 15.37493978 3.1484375 4.21484375 C1.75 2.5625 1.75 2.5625 0 0 Z " fill="#000000" transform="translate(276,190)"/>
<path d="M0 0 C3.49578315 1.4322529 6.59781767 3.33721327 9.8125 5.3125 C21.07719708 12.02037238 33.48584744 14.71056274 46.25 16.9375 C39.04314395 22.49440628 33.24358203 23.77519457 24.25 22.9375 C10.38418785 20.89088566 -1.21921048 15.33636902 -10.75 4.9375 C-11.79766672 3.30037684 -12.81320343 1.64049441 -13.75 -0.0625 C-9.34687847 -2.26406077 -4.53356762 -1.28451083 0 0 Z " fill="#000000" transform="translate(281.75,201.0625)"/>
<path d="M0 0 C5.58576826 -0.88196341 9.00842801 1.33960615 13.5625 4.2265625 C15.77527015 5.83649463 17.56786004 7.45100754 19.4375 9.4375 C26.65444748 17.09286018 36.63022459 21.53586617 46 26 C45.67 26.66 45.34 27.32 45 28 C31.26990217 29.42035495 20.87550278 25.53170346 9.9375 17.1875 C5.78551069 13.21125627 2.62404676 8.08060118 0 3 C0 2.01 0 1.02 0 0 Z " fill="#000000" transform="translate(257,207)"/>
<path d="M0 0 C9.79274382 3.39317694 17.05622037 11.81012498 23.7109375 19.421875 C26.04718866 22.05314764 28.4903175 24.53465818 31 27 C24.10094822 27.77776367 19.68383772 27.04485458 14.09765625 22.828125 C7.67922931 17.23441214 3.07956728 10.98984506 0 3 C0 2.01 0 1.02 0 0 Z " fill="#000000" transform="translate(245,215)"/>
<path d="M0 0 C19.41459379 2.19402768 43.3784363 11.41494302 56.21875 26.62890625 C63.89777877 37.8057977 66.62356626 50.29707291 64.59765625 63.65234375 C62.84993093 70.8831289 58.66144967 76.32827416 54 82 C53.44570312 82.680625 52.89140625 83.36125 52.3203125 84.0625 C50.8125 85.75 50.8125 85.75 48 88 C43.89946861 88.10251328 40.56719851 85.90803641 37 84 C38.50223584 79.79373966 41.28550034 78.26099979 45 76 C35.23081672 75.18975922 35.23081672 75.18975922 25.4375 75.125 C21.48244251 75.17046043 19.11647531 74.62952605 16 72 C15.34 71.01 14.68 70.02 14 69 C15.03930664 68.98018066 16.07861328 68.96036133 17.14941406 68.93994141 C21.01114836 68.86377876 24.8725111 68.775078 28.73388672 68.68261719 C30.40405941 68.64437143 32.07431323 68.60951085 33.74462891 68.578125 C36.14775557 68.53237839 38.55032584 68.47440075 40.953125 68.4140625 C41.69806213 68.40251129 42.44299927 68.39096008 43.21051025 68.37905884 C47.23803506 68.26480569 49.29783141 67.8510843 53 66 C53.99 62.7 54.98 59.4 56 56 C37.85 56 19.7 56 1 56 C7.68276894 72.03864545 14.59148985 79.73956896 30.4921875 86.48046875 C31.67039063 86.96128906 32.84859375 87.44210937 34.0625 87.9375 C47.29101255 93.45059564 57.98732905 102.44787168 64.1015625 115.55859375 C65.39714211 119.07919051 65.79233169 122.26197049 66 126 C63.36 126 60.72 126 58 126 C57.58492188 125.10539062 57.16984375 124.21078125 56.7421875 123.2890625 C49.51347417 108.72247742 37.96815737 102.70686987 23.765625 95.859375 C9.93779488 89.13345159 -0.32856147 80.5809619 -6 66 C-9.61728631 54.9974208 -8.12194024 43.29016308 -3 33 C0.47411405 27.57802103 4.54489738 22.4819804 10 19 C14.38828234 19 17.48490348 20.4153702 21 23 C21 23.66 21 24.32 21 25 C19.25 26.2890625 19.25 26.2890625 17 27.625 C16.2575 28.07101563 15.515 28.51703125 14.75 28.9765625 C13.88375 29.48316406 13.88375 29.48316406 13 30 C13.6297876 29.97905273 14.2595752 29.95810547 14.90844727 29.93652344 C17.79296571 29.85279901 20.67722768 29.80116379 23.5625 29.75 C24.55314453 29.71648437 25.54378906 29.68296875 26.56445312 29.6484375 C32.93556613 29.56377155 36.87418888 30.09060222 42 34 C42.33 34.99 42.66 35.98 43 37 C24.19 37.495 24.19 37.495 5 38 C4.01 41.63 3.02 45.26 2 49 C19.49 48.67 36.98 48.34 55 48 C50.25094109 36.12735273 44.87601019 28.4567417 33.21142578 23.19287109 C31.18675143 22.32674076 29.15704696 21.47368262 27.125 20.625 C16.47994304 16.16018582 7.61273785 9.74701397 0 1 C0 0.67 0 0.34 0 0 Z " fill="#000000" transform="translate(197,216)"/>
<path d="M0 0 C3.87250721 0.93474312 5.75323121 2.1772778 8.625 4.875 C6.315 6.525 4.005 8.175 1.625 9.875 C2.53209717 9.88901855 2.53209717 9.88901855 3.45751953 9.90332031 C6.2224788 9.95731722 8.98579906 10.04090394 11.75 10.125 C13.17699219 10.14626953 13.17699219 10.14626953 14.6328125 10.16796875 C20.55085465 10.37345632 24.11044583 10.93771669 28.625 14.875 C29.12 15.865 29.12 15.865 29.625 16.875 C28.65151611 16.88958252 27.67803223 16.90416504 26.67504883 16.91918945 C23.04984524 16.97733296 19.4252524 17.05456377 15.80053711 17.13745117 C14.23423199 17.17062532 12.66780949 17.19868058 11.10131836 17.22143555 C8.84438237 17.25512116 6.58851474 17.30744049 4.33203125 17.36328125 C3.63600296 17.36967117 2.93997467 17.3760611 2.22285461 17.38264465 C-2.11238002 17.51260284 -4.92028908 18.21978004 -8.375 20.875 C-9.38434681 22.88088475 -9.38434681 22.88088475 -9.6875 25.0625 C-9.914375 26.320625 -10.14125 27.57875 -10.375 28.875 C-13.675 28.875 -16.975 28.875 -20.375 28.875 C-18.83259247 18.07814732 -14.16214736 9.55308367 -6.375 1.875 C-3.375 -0.125 -3.375 -0.125 0 0 Z " fill="#000000" transform="translate(211.375,313.125)"/>
<path d="M0 0 C1.65 0 3.3 0 5 0 C6.30466608 2.60933216 5.80984403 3.74936885 5.22265625 6.5859375 C4.94615234 7.97462036 4.94615234 7.97462036 4.6640625 9.39135742 C4.46554688 10.37595947 4.26703125 11.36056152 4.0625 12.375 C1.39988917 24.14097575 1.39988917 24.14097575 2 36 C4.63563489 38.65911493 6.72971547 39.44859224 10.4375 39.5 C13.83000771 39.35516387 14.92955439 39.04594279 17.875 37.125 C22.8449011 29.8163219 23.78672129 20.44318731 25.1875 11.875 C25.36474609 10.823125 25.54199219 9.77125 25.72460938 8.6875 C26.15542519 6.12589246 26.58044702 3.56347191 27 1 C29.31 1 31.62 1 34 1 C33.25944343 5.41495972 32.49567179 9.82510932 31.71118164 14.23242188 C31.44810273 15.7287335 31.1911324 17.22613365 30.94067383 18.72460938 C27.88892477 36.92589603 27.88892477 36.92589603 20 43.5 C14.73262756 46.09316797 8.68750922 45.71002367 3 45 C-1.22531239 43.17874466 -2.53254881 41.75395352 -4.9375 37.875 C-7.72566967 30.19461114 -4.44315949 20.25959668 -3 12.5 C-2.82210937 11.51257813 -2.64421875 10.52515625 -2.4609375 9.5078125 C-1.1308171 2.2616342 -1.1308171 2.2616342 0 0 Z " fill="#000000" transform="translate(96,358)"/>
<path d="M0 0 C1.92548958 1.1961891 3.70846763 2.43110018 5.45703125 3.87109375 C4.64453125 5.80859375 4.64453125 5.80859375 3.45703125 7.87109375 C2.46703125 8.20109375 1.47703125 8.53109375 0.45703125 8.87109375 C-0.22359375 8.15953125 -0.22359375 8.15953125 -0.91796875 7.43359375 C-4.10941113 4.36489915 -6.99067187 4.60660583 -11.22265625 4.640625 C-14.44979444 4.96116566 -16.7816139 6.22743015 -19.54296875 7.87109375 C-20.53296875 8.20109375 -21.52296875 8.53109375 -22.54296875 8.87109375 C-23.66231948 10.51739568 -23.66231948 10.51739568 -24.54296875 12.87109375 C-24.80335938 13.45246094 -25.06375 14.03382813 -25.33203125 14.6328125 C-27.90160451 20.74455451 -28.70638211 25.78804834 -26.29296875 32.18359375 C-23.50918952 36.45868328 -21.80861183 37.57577703 -16.79296875 38.74609375 C-10.81895659 39.31451655 -5.69281975 36.66059637 -0.54296875 33.87109375 C0.11703125 35.19109375 0.77703125 36.51109375 1.45703125 37.87109375 C-3.67841499 42.63077563 -7.77357839 44.44437031 -14.85546875 45.24609375 C-21.01757758 44.61943861 -26.56113813 42.80337861 -31.04296875 38.43359375 C-35.07269589 31.54947655 -35.77304972 24.94609845 -33.890625 17.1796875 C-31.14483116 9.460825 -26.63293907 4.21735096 -19.35546875 0.43359375 C-13.18799724 -1.98708619 -6.16077021 -2.73496558 0 0 Z " fill="#000000" transform="translate(207.54296875,359.12890625)"/>
<path d="M0 0 C2 2.1875 2 2.1875 3 4 C1.68 4.99 0.36 5.98 -1 7 C-5 5 -5 5 -6.8125 3.875 C-10.63925284 2.34429886 -14.14079339 2.37790805 -18.0546875 3.6875 C-24.0130041 6.38560563 -27.5134156 9.814462 -30.3125 15.8125 C-31.53796093 21.4941825 -31.93806373 26.05171379 -29.375 31.375 C-26.30482157 34.76835511 -23.64010229 36.67322899 -19.01171875 37.24609375 C-14.89843162 37.37778091 -11.56630193 37.05386035 -8 35 C-6.74467197 32.15623685 -6.74467197 32.15623685 -6.1875 28.875 C-5.95417969 27.77929688 -5.72085938 26.68359375 -5.48046875 25.5546875 C-5.32191406 24.71164062 -5.16335938 23.86859375 -5 23 C-8.3 23 -11.6 23 -15 23 C-14.67 21.35 -14.34 19.7 -14 18 C-9.05 18 -4.1 18 1 18 C-0.16455696 34.88607595 -0.16455696 34.88607595 -2 39 C-8.55190652 43.55784802 -16.25934384 43.70550268 -24 43 C-29.95688307 41.29385509 -33.49659134 37.98970325 -37 33 C-39.11324325 26.66027024 -38.94083746 19.37319113 -36.375 13.1875 C-32.70544078 6.08014319 -28.19348015 1.46352748 -21 -2 C-13.90869686 -4.13593468 -6.50020182 -3.64682684 0 0 Z " fill="#000000" transform="translate(286,361)"/>
<path d="M0 0 C3.20802233 -0.11698258 6.41549025 -0.18750607 9.625 -0.25 C10.98044922 -0.30027344 10.98044922 -0.30027344 12.36328125 -0.3515625 C18.25216729 -0.43753164 21.51512738 0.08117926 26 4 C27.76020069 7.52040139 27.07153604 11.30064938 26 15 C24.17025264 17.21602736 22.43473564 18.39411054 20 20 C21.2375 21.2065625 21.2375 21.2065625 22.5 22.4375 C25.31661106 25.82385289 25.68736303 28.55456748 25.41796875 32.88671875 C24.5579207 37.23518601 22.13569525 39.23488063 18.59375 41.62109375 C13.4195122 43.6064263 8.61219548 43.31927378 3.125 43.1875 C2.05507812 43.17396484 0.98515625 43.16042969 -0.1171875 43.14648438 C-2.74531511 43.11128624 -5.37239194 43.06204693 -8 43 C-7.02435014 37.35780202 -6.0456839 31.71613879 -5.06420898 26.07495117 C-4.73069467 24.1554992 -4.39800752 22.23590331 -4.06616211 20.31616211 C-3.58924874 17.5580488 -3.1093707 14.80046539 -2.62890625 12.04296875 C-2.48095108 11.18350143 -2.33299591 10.32403412 -2.18055725 9.43852234 C-2.04048752 8.63791885 -1.90041779 7.83731537 -1.75610352 7.01245117 C-1.63396988 6.3085173 -1.51183624 5.60458344 -1.38600159 4.87931824 C-1 3 -1 3 0 0 Z M5 5 C4.66127487 6.41538717 4.32925376 7.83237963 4 9.25 C3.814375 10.03890625 3.62875 10.8278125 3.4375 11.640625 C2.87845172 14.25556002 2.87845172 14.25556002 3 18 C11.58079805 18.77266862 11.58079805 18.77266862 19.375 15.875 C21.26140542 13.08792369 21.26140542 13.08792369 21 9.8125 C20.21262767 6.70976172 20.21262767 6.70976172 17 5 C14.02550392 4.75780685 14.02550392 4.75780685 10.8125 4.875 C9.18248047 4.90207031 9.18248047 4.90207031 7.51953125 4.9296875 C6.68808594 4.95289063 5.85664063 4.97609375 5 5 Z M2 23 C1.49733206 25.12437048 0.9979439 27.24951726 0.5 29.375 C0.2215625 30.55835938 -0.056875 31.74171875 -0.34375 32.9609375 C-1.07035776 35.80763842 -1.07035776 35.80763842 -1 38 C1.22855574 38.0814222 3.45797655 38.13938079 5.6875 38.1875 C6.92886719 38.22230469 8.17023438 38.25710938 9.44921875 38.29296875 C13.21666932 37.98212299 15.02794917 37.2772857 18 35 C19.39935013 32.20129973 19.25265405 30.09501208 19 27 C17.14657225 24.44050454 16.06243607 24.02081202 13 23 C11.10529184 22.9314505 9.2083166 22.91519628 7.3125 22.9375 C6.31863281 22.94652344 5.32476562 22.95554687 4.30078125 22.96484375 C3.54152344 22.97644531 2.78226563 22.98804688 2 23 Z " fill="#000000" transform="translate(140,359)"/>
<path d="M0 0 C0.33 1.32 0.66 2.64 1 4 C-1.475 5.485 -1.475 5.485 -4 7 C-5.5625 5.75 -5.5625 5.75 -7 4 C-6.8125 1.875 -6.8125 1.875 -6 0 C-3.50907189 -1.24546405 -2.58919267 -0.7767578 0 0 Z " fill="#000000" transform="translate(243,360)"/>
<path d="M0 0 C8.91 0 17.82 0 27 0 C26.67 1.98 26.34 3.96 26 6 C19.07 6 12.14 6 5 6 C4.34 10.29 3.68 14.58 3 19 C9.6 19 16.2 19 23 19 C22.67 20.65 22.34 22.3 22 24 C12.1 24.495 12.1 24.495 2 25 C1.690625 26.93875 1.38125 28.8775 1.0625 30.875 C0.125 36.75 0.125 36.75 -1 39 C6.59 39 14.18 39 22 39 C21.67 40.65 21.34 42.3 21 44 C11.43 44 1.86 44 -8 44 C-7.236875 39.33875 -6.47375 34.6775 -5.6875 29.875 C-5.45377686 28.43624512 -5.22005371 26.99749023 -4.97924805 25.51513672 C-3.56271147 16.94354376 -1.88127714 8.48505644 0 0 Z " fill="#000000" transform="translate(301,359)"/>
<path d="M0 0 C2.97 0 5.94 0 9 0 C10.65805531 3.81978402 11.65251698 7.54133083 12.5078125 11.61328125 C12.77207031 12.86044922 13.03632813 14.10761719 13.30859375 15.39257812 C13.58082679 16.69919842 13.85296097 18.0058393 14.125 19.3125 C14.40453627 20.6387587 14.68448011 21.96493158 14.96484375 23.29101562 C15.64724152 26.52652227 16.32547369 29.76284482 17 33 C17.43868408 32.20827393 17.87736816 31.41654785 18.3293457 30.60083008 C19.96683596 27.6465058 21.60510607 24.69261679 23.24389648 21.73901367 C23.95123798 20.46379509 24.65827375 19.18840686 25.36499023 17.9128418 C26.38443774 16.07295098 27.40500544 14.23368538 28.42578125 12.39453125 C29.34484253 10.73707886 29.34484253 10.73707886 30.2824707 9.04614258 C30.84925537 8.04091553 31.41604004 7.03568848 32 6 C32.51755859 5.05318359 33.03511719 4.10636719 33.56835938 3.13085938 C35 1 35 1 37.48046875 0.51171875 C38.82044922 0.59873047 38.82044922 0.59873047 40.1875 0.6875 C41.53908203 0.75517578 41.53908203 0.75517578 42.91796875 0.82421875 C43.60503906 0.88222656 44.29210937 0.94023437 45 1 C44.18896384 9.94193032 42.5240544 18.73357621 40.9375 27.5625 C40.65272838 29.15945773 40.36822092 30.75646258 40.08398438 32.35351562 C39.39236917 36.23622748 38.69717537 40.11828284 38 44 C36.02 44 34.04 44 32 44 C32.57871092 36.17339378 33.66129101 28.5315276 35.0625 20.8125 C35.24876953 19.76513672 35.43503906 18.71777344 35.62695312 17.63867188 C36.08052662 15.09168227 36.53825768 12.54551901 37 10 C36.57178955 10.74572266 36.1435791 11.49144531 35.70239258 12.25976562 C34.0914528 15.06351874 32.47915176 17.86648349 30.8659668 20.66894531 C30.17207289 21.87501815 29.47870025 23.08139105 28.78588867 24.28808594 C24.97048411 30.93267496 21.11896935 37.53761702 17 44 C15.35 43.67 13.7 43.34 12 43 C8.535 27.16 8.535 27.16 5 11 C3.44237987 18.866753 3.44237987 18.866753 1.88916016 26.734375 C0.73509624 32.53380443 -0.4999001 38.27999291 -2 44 C-3.98 44 -5.96 44 -8 44 C-5.36 29.48 -2.72 14.96 0 0 Z " fill="#000000" transform="translate(337,359)"/>
<path d="M0 0 C1.98 0 3.96 0 6 0 C4.72029806 9.77090067 3.02534911 19.35933823 1 29 C-0.98 29 -2.96 29 -5 29 C-4.35550919 25.10394334 -3.70917197 21.20819517 -3.0625 17.3125 C-2.78889648 15.65831055 -2.78889648 15.65831055 -2.50976562 13.97070312 C-2.24389648 12.3706543 -2.24389648 12.3706543 -1.97265625 10.73828125 C-1.81031494 9.75899658 -1.64797363 8.77971191 -1.48071289 7.77075195 C-1.02956586 5.1704129 -0.53025329 2.5852427 0 0 Z " fill="#000000" transform="translate(235,374)"/>
</svg>
