<?xml version="1.0" encoding="UTF-8"?>
<svg version="1.1" xmlns="http://www.w3.org/2000/svg" width="495" height="468">
<path d="M0 0 C163.35 0 326.7 0 495 0 C495 154.44 495 308.88 495 468 C331.65 468 168.3 468 0 468 C0 313.56 0 159.12 0 0 Z " fill="#FDFDFD" transform="translate(0,0)"/>
<path d="M0 0 C0.66 0 1.32 0 2 0 C8.48000841 12.05744422 9.23358722 26.52447359 6.11328125 39.76171875 C4.95436707 42.70713185 3.63573855 45.2929969 2 48 C1.45730469 48.96035156 0.91460937 49.92070312 0.35546875 50.91015625 C-5.27279669 60.34988813 -11.64169352 65.97277534 -20.81640625 71.89453125 C-24.01448452 74.00957933 -27.06987123 76.24657871 -30.125 78.5625 C-31.115 79.30242187 -32.105 80.04234375 -33.125 80.8046875 C-34.9894595 82.22836446 -36.82549612 83.69037027 -38.625 85.1953125 C-44.620271 89.97279408 -44.620271 89.97279408 -48.7734375 90.0546875 C-52.62595412 89.35924754 -55.19719438 88.80280562 -58 86 C-53.25 83.125 -53.25 83.125 -51 82 C-52.38782485 81.1533966 -53.78569397 80.32324661 -55.1875 79.5 C-55.96480469 79.0359375 -56.74210937 78.571875 -57.54296875 78.09375 C-60.24103386 76.89270353 -62.0806982 76.79258957 -65 77 C-65.33 78.98 -65.66 80.96 -66 83 C-69.79588866 82.45773019 -71.47211993 80.79872437 -74 78 C-74.928125 78.99 -74.928125 78.99 -75.875 80 C-78 82 -78 82 -80 82 C-79.84015625 80.93007812 -79.6803125 79.86015625 -79.515625 78.7578125 C-78.81769867 73.13727816 -78.77776646 67.53241655 -78.75 61.875 C-78.729375 60.81667969 -78.70875 59.75835937 -78.6875 58.66796875 C-78.65941127 53.07128853 -78.66703081 48.75025982 -82 44 C-84.97951883 42.01365411 -86.03131624 41.68517525 -89.4375 41.375 C-90.19933594 41.30023438 -90.96117187 41.22546875 -91.74609375 41.1484375 C-93.82680886 41.011406 -95.91477747 41 -98 41 C-98.66 42.98 -99.32 44.96 -100 47 C-100.99 46.67 -101.98 46.34 -103 46 C-104.24266632 42.27200105 -104.52902513 38.87217006 -104 35 C-101.72828377 30.62484282 -99.12788339 27.67632 -95 25 C-92.23866047 24.71385083 -89.91854388 24.61410117 -87.1875 24.75 C-86.49462891 24.76804688 -85.80175781 24.78609375 -85.08789062 24.8046875 C-83.39132336 24.85148936 -81.69547524 24.92322376 -80 25 C-79.34 23.68 -78.68 22.36 -78 21 C-66.50507452 20.33965322 -56.45925522 23.29841039 -47 30 C-44.71355991 32.40955609 -43.41180399 35.00661813 -42 38 C-41.04236448 40.02937684 -40.07974969 42.05579762 -39.10424805 44.07666016 C-38.42326562 45.49735515 -37.75980972 46.92662019 -37.11645508 48.36474609 C-34.89054576 53.08024151 -32.72798893 55.45658119 -28 58 C-24.52674819 59.1577506 -21.63932552 59.06866652 -18 59 C-17.37237545 57.77217138 -16.74803935 56.54266164 -16.125 55.3125 C-15.77695312 54.62800781 -15.42890625 53.94351563 -15.0703125 53.23828125 C-14.71710938 52.49964844 -14.36390625 51.76101562 -14 51 C-13.63132812 50.236875 -13.26265625 49.47375 -12.8828125 48.6875 C-10.74829322 42.1894944 -11.13649369 33.21382589 -13 26.625 C-14.4904839 21.22199586 -15.25341183 16.29792168 -12.5 11.25 C-9.78267399 8.80440659 -7.00599591 7.05421286 -3.8046875 5.30859375 C-1.69125472 3.77612626 -0.97976346 2.38880471 0 0 Z " fill="#080808" transform="translate(277,132)"/>
<path d="M0 0 C8.21657689 2.06237727 16.09137415 4.72392955 24 7.75 C25.64742187 8.35714844 25.64742187 8.35714844 27.328125 8.9765625 C43.17273509 15.02154408 54.68200235 23.34547686 62.33203125 38.66796875 C66.32147152 48.21161209 66.47624712 58.86971747 63.03515625 68.6328125 C59.74794503 76.14998231 55.06822203 84.464898 48 89 C43.84984052 88.68075696 40.64130719 86.94767594 37 85 C38.50823571 80.77694 41.32785152 79.3430867 45 77 C44.27409668 76.99589111 43.54819336 76.99178223 42.80029297 76.98754883 C39.49105084 76.9545251 36.18362816 76.88386974 32.875 76.8125 C31.73289063 76.80669922 30.59078125 76.80089844 29.4140625 76.79492188 C19.91015749 76.5462732 19.91015749 76.5462732 16.1953125 73.51171875 C14 71 14 71 14 70 C15.06959961 69.9906543 16.13919922 69.98130859 17.24121094 69.97167969 C21.2149397 69.93176488 25.18789544 69.86600279 29.16113281 69.79248047 C30.87978169 69.76427933 32.59856005 69.74306046 34.31738281 69.72900391 C36.79038747 69.70756167 39.26183675 69.66090844 41.734375 69.609375 C42.88459137 69.60753204 42.88459137 69.60753204 44.05804443 69.60565186 C47.34562474 69.51567056 49.60011268 69.25717539 52.39160156 67.46191406 C54.6328194 64.32490384 54.6328194 64.32490384 56 57 C37.85 57 19.7 57 1 57 C7.68276894 73.03864545 14.59148985 80.73956896 30.4921875 87.48046875 C31.67039063 87.96128906 32.84859375 88.44210937 34.0625 88.9375 C47.29101255 94.45059564 57.98732905 103.44787168 64.1015625 116.55859375 C65.39714211 120.07919051 65.79233169 123.26197049 66 127 C63.36 127 60.72 127 58 127 C57.57332031 126.09378906 57.14664063 125.18757813 56.70703125 124.25390625 C49.49065394 109.82710737 37.62742223 103.98565439 23.59887695 97.06762695 C10.38847904 90.44931873 0.18302091 81.54870017 -6 68 C-9.01416489 57.75899074 -8.410518 44.12859505 -3.69921875 34.625 C-0.01316602 28.93068406 4.33787159 23.77475227 10 20 C14.36930275 20.28495453 17.47119427 21.4052899 21 24 C21 24.66 21 25.32 21 26 C19.03852126 27.38938077 17.03833424 28.7260411 15 30 C15.56396484 30.00410889 16.12792969 30.00821777 16.70898438 30.01245117 C19.30699703 30.04569765 21.90275923 30.1163677 24.5 30.1875 C25.386875 30.19330078 26.27375 30.19910156 27.1875 30.20507812 C33.45303294 30.41239355 38.26799761 31.68045821 43 36 C43 36.66 43 37.32 43 38 C30.79 38.33 18.58 38.66 6 39 C4.68 42.63 3.36 46.26 2 50 C19.49 50 36.98 50 55 50 C51.45681929 39.37045787 47.42938279 32.18213732 37.55737305 26.625 C34.95507737 25.3831257 32.33195402 24.21172199 29.6875 23.0625 C18.31691324 17.87439207 8.06187863 11.84057392 0 2 C0 1.34 0 0.68 0 0 Z " fill="#0A0A0A" transform="translate(197,215)"/>
<path d="M0 0 C6.09172763 -0.30015231 10.54608038 0.50422913 16.1875 2.75 C16.87263672 3.00265625 17.55777344 3.2553125 18.26367188 3.515625 C26.31158108 6.61395386 29.71276442 10.69213201 33.375 18.3125 C36.97360058 25.43830036 40.30575672 31.4181662 47.5 35.375 C50.64651622 36.16162905 53.78072031 36.62126121 57 37 C53.64423518 44.91254021 45.59097304 49.72802886 38 53 C32.50009677 54.83330108 26.04923035 55.32487289 20.64453125 52.9765625 C11.40354562 46.50608513 6.82290541 35.07827592 1.96875 25.2890625 C1.51242188 24.391875 1.05609375 23.4946875 0.5859375 22.5703125 C0.1842334 21.76352051 -0.2174707 20.95672852 -0.63134766 20.12548828 C-2.55666339 17.13551347 -4.61548789 15.312219 -8.11328125 14.5234375 C-8.83902344 14.47445312 -9.56476563 14.42546875 -10.3125 14.375 C-11.09109375 14.31183594 -11.8696875 14.24867188 -12.671875 14.18359375 C-13.44015625 14.12300781 -14.2084375 14.06242188 -15 14 C-17.33871229 13.69699166 -19.66734002 13.34741744 -22 13 C-22.33 12.01 -22.66 11.02 -23 10 C-18.28445748 4.34134897 -18.28445748 4.34134897 -14.09814453 3.71582031 C-9.38858956 3.46265333 -4.70223533 3.69517322 0 4 C0 2.68 0 1.36 0 0 Z " fill="#FAFAFA" transform="translate(200,156)"/>
<path d="M0 0 C3.04221065 -0.08132642 6.0822238 -0.14065374 9.125 -0.1875 C9.9809375 -0.21263672 10.836875 -0.23777344 11.71875 -0.26367188 C16.90609711 -0.32352588 20.5456379 0.02348701 25 3 C27.48695328 6.73042992 27.24549181 8.47010786 26.69140625 12.76953125 C25.52411904 16.53518661 23.22434609 17.87330364 20 20 C20.825 20.825 21.65 21.65 22.5 22.5 C24.60973705 25.0352806 25.39959316 26.75534985 25.5 30.0625 C24.98311069 34.13300334 24.70433402 35.95762423 22 39 C15.89898107 43.25083525 10.24410112 43.50978845 3 43.25 C2.03449219 43.23195313 1.06898438 43.21390625 0.07421875 43.1953125 C-2.28492033 43.14859687 -4.64191075 43.08312137 -7 43 C-7.13459564 37.92076395 -6.66519059 33.17894756 -5.72265625 28.203125 C-5.59185165 27.48767517 -5.46104706 26.77222534 -5.32627869 26.03509521 C-5.05090465 24.53539387 -4.77259005 23.03622973 -4.49145508 21.53759766 C-4.06131389 19.24367453 -3.6402514 16.94822556 -3.22070312 14.65234375 C-2.95104473 13.19000746 -2.68088027 11.72776438 -2.41015625 10.265625 C-2.28407486 9.58123352 -2.15799347 8.89684204 -2.02809143 8.19171143 C-1.4982611 5.37652807 -0.90744808 2.72234423 0 0 Z " fill="#0D0D0D" transform="translate(140,359)"/>
<path d="M0 0 C0.10956696 1.54002456 0.18629371 3.08239763 0.25 4.625 C0.29640625 5.48351562 0.3428125 6.34203125 0.390625 7.2265625 C-0.29181244 12.07186835 -2.9647383 15.06730293 -6.5234375 18.2734375 C-18.29539724 26.94921057 -29.91666608 33.76515134 -44 38 C-45.20785156 38.36867187 -46.41570312 38.73734375 -47.66015625 39.1171875 C-53.0760946 40.43222718 -58.51965314 40.29098223 -64.0625 40.25 C-65.63741211 40.26160156 -65.63741211 40.26160156 -67.24414062 40.2734375 C-72.88753837 40.25923134 -77.67481188 39.9034715 -83 38 C-83 37.34 -83 36.68 -83 36 C-81.09375 34.59765625 -81.09375 34.59765625 -78.5 33.0625 C-77.6646875 32.55847656 -76.829375 32.05445313 -75.96875 31.53515625 C-68.95534568 27.90848796 -61.92183885 26.21908828 -54.25 24.625 C-46.0555976 22.82175995 -38.52587825 20.79590605 -31 17 C-30.28215332 16.64244629 -29.56430664 16.28489258 -28.82470703 15.91650391 C-20.07436488 11.53336993 -11.51603906 7.1299841 -3.71484375 1.1796875 C-2 0 -2 0 0 0 Z " fill="#070707" transform="translate(371,131)"/>
<path d="M0 0 C3.3 0 6.6 0 10 0 C12.31 10.89 14.62 21.78 17 33 C21.80234115 24.34000386 21.80234115 24.34000386 26.6027832 15.67895508 C27.20437256 14.59509521 27.80596191 13.51123535 28.42578125 12.39453125 C29.34484253 10.73707886 29.34484253 10.73707886 30.2824707 9.04614258 C30.84925537 8.04091553 31.41604004 7.03568848 32 6 C32.51755859 5.05318359 33.03511719 4.10636719 33.56835938 3.13085938 C35 1 35 1 37.48046875 0.51171875 C38.82044922 0.59873047 38.82044922 0.59873047 40.1875 0.6875 C41.53908203 0.75517578 41.53908203 0.75517578 42.91796875 0.82421875 C43.60503906 0.88222656 44.29210937 0.94023437 45 1 C44.18896384 9.94193032 42.5240544 18.73357621 40.9375 27.5625 C40.65272838 29.15945773 40.36822092 30.75646258 40.08398438 32.35351562 C39.39236917 36.23622748 38.69717537 40.11828284 38 44 C36.02 44 34.04 44 32 44 C31.89608574 39.30567345 32.21164765 35.01914101 33.09375 30.41015625 C33.31933594 29.21455078 33.54492188 28.01894531 33.77734375 26.78710938 C34.01582031 25.55798828 34.25429688 24.32886719 34.5 23.0625 C34.73847656 21.80630859 34.97695313 20.55011719 35.22265625 19.25585938 C35.80942771 16.16944149 36.40203976 13.08426622 37 10 C36.57178955 10.74572266 36.1435791 11.49144531 35.70239258 12.25976562 C34.0914528 15.06351874 32.47915176 17.86648349 30.8659668 20.66894531 C30.17207289 21.87501815 29.47870025 23.08139105 28.78588867 24.28808594 C27.13397248 27.16492482 25.47467436 30.03676079 23.80322266 32.90234375 C22.69763891 34.80156479 21.60546458 36.70876834 20.53662109 38.62890625 C19.26171875 40.84375 19.26171875 40.84375 17 44 C15.68 44 14.36 44 13 44 C10.1090106 32.71283927 7.4772773 21.38493395 5 10 C3.18887199 18.82443223 1.48861409 27.65345287 0.00268555 36.53881836 C-0.89353985 41.7870797 -0.89353985 41.7870797 -2 44 C-3.65 44 -5.3 44 -7 44 C-6.70374858 29.18742904 -3.58440125 14.33760501 0 0 Z " fill="#0E0E0E" transform="translate(337,359)"/>
<path d="M0 0 C0.78550552 7.32819177 -0.71092885 11.3919309 -5.125 17.1875 C-5.93263794 18.28106812 -5.93263794 18.28106812 -6.7565918 19.39672852 C-18.8695135 35.38091565 -33.79019726 48.47263809 -53 55 C-54.12148438 55.39058594 -55.24296875 55.78117187 -56.3984375 56.18359375 C-64.42364154 58.74350983 -71.60147946 59.50223711 -80 59 C-80 58.34 -80 57.68 -80 57 C-78.19638149 55.65839214 -76.32934567 54.40153103 -74.4375 53.1875 C-71.07991711 51.02037097 -67.77921613 48.84416799 -64.58203125 46.44921875 C-61.015782 43.88008077 -57.31263372 42.25381152 -53.25 40.625 C-33.00308749 32.05578657 -17.47184717 17.01112261 -2.42016602 1.35424805 C-1 0 -1 0 0 0 Z " fill="#090909" transform="translate(369,96)"/>
<path d="M0 0 C0.33 0 0.66 0 1 0 C2.14468794 29.60290207 -4.70181493 57.6501267 -24.5 80.375 C-30.63529327 86.87370786 -36.87487745 93.09994118 -45 97 C-45.99 97 -46.98 97 -48 97 C-45.80721822 87.91561836 -40.50020976 81.3290295 -35 74 C-24.48710038 59.89704015 -15.97615859 45.63829931 -10 29 C-9.70851074 28.18885742 -9.41702148 27.37771484 -9.11669922 26.54199219 C-5.96939621 17.73086131 -2.94074246 8.88207968 0 0 Z " fill="#080808" transform="translate(331,34)"/>
<path d="M0 0 C0.33 0 0.66 0 1 0 C0.43966666 5.50276071 -0.9642946 10.04856667 -3.125 15.125 C-3.43775879 15.86709717 -3.75051758 16.60919434 -4.07275391 17.3737793 C-15.92902991 45.01167983 -34.45241725 65.0679613 -62 77 C-62.88429688 77.39316406 -63.76859375 77.78632813 -64.6796875 78.19140625 C-67.06250084 79.0217806 -68.805166 79.20999437 -71.3125 79.125 C-72.529375 79.08375 -73.74625 79.0425 -75 79 C-68.96394947 69.77416667 -60.73848749 64.09193173 -51.625 58.1875 C-44.35217242 53.46268258 -38.17920605 48.08374079 -32 42 C-31.43877441 41.46068848 -30.87754883 40.92137695 -30.29931641 40.36572266 C-26.24599977 36.41846173 -22.72193189 32.30663119 -19.375 27.75 C-18.87572998 27.07904297 -18.37645996 26.40808594 -17.86206055 25.71679688 C-13.0946375 19.2509932 -8.57056226 12.61860139 -4.10107422 5.94433594 C-3.57916504 5.16864258 -3.05725586 4.39294922 -2.51953125 3.59375 C-1.82500854 2.55250977 -1.82500854 2.55250977 -1.11645508 1.49023438 C-0.7480249 0.99845703 -0.37959473 0.50667969 0 0 Z " fill="#080808" transform="translate(360,63)"/>
<path d="M0 0 C11.49492548 -0.66034678 21.54074478 2.29841039 31 9 C33.28644009 11.40955609 34.58819601 14.00661813 36 17 C36.95763552 19.02937684 37.92025031 21.05579762 38.89575195 23.07666016 C39.57673438 24.49735515 40.24019028 25.92662019 40.88354492 27.36474609 C43.10742848 32.07595001 45.24076133 34.51373959 50 37 C52.48821895 37.86926171 52.48821895 37.86926171 54.875 38.25 C55.65617187 38.39953125 56.43734375 38.5490625 57.2421875 38.703125 C57.82226562 38.80109375 58.40234375 38.8990625 59 39 C58.505 39.99 58.505 39.99 58 41 C56.60190528 40.74109357 55.20657858 40.46722539 53.8125 40.1875 C53.03519531 40.03667969 52.25789063 39.88585937 51.45703125 39.73046875 C44.54646392 37.67597576 40.12075469 32.67590541 36 27 C34.77929534 24.5932395 33.618578 22.20151541 32.5 19.75 C29.71052415 13.77704565 27.24254665 10.39527257 21 8 C20.04480469 7.62617188 19.08960938 7.25234375 18.10546875 6.8671875 C12.4118137 4.81890405 7.02922439 3.46378649 1 3 C1 4.32 1 5.64 1 7 C-0.62808594 7.02126953 -0.62808594 7.02126953 -2.2890625 7.04296875 C-3.73441613 7.08989582 -5.17972731 7.13814305 -6.625 7.1875 C-7.69427734 7.19620117 -7.69427734 7.19620117 -8.78515625 7.20507812 C-14.43607009 7.43837273 -17.06934959 8.91435548 -21 13 C-21 13.66 -21 14.32 -21 15 C-20.030625 15.144375 -19.06125 15.28875 -18.0625 15.4375 C-17.10923828 15.58058594 -17.10923828 15.58058594 -16.13671875 15.7265625 C-14.66547295 15.91483893 -13.18717685 16.05261888 -11.70703125 16.1484375 C-10.93746094 16.20257813 -10.16789063 16.25671875 -9.375 16.3125 C-8.30378906 16.36857422 -8.30378906 16.36857422 -7.2109375 16.42578125 C-3.10578038 17.49196163 -0.55794835 20.11642505 1.66577148 23.63793945 C2.14602783 24.61980225 2.62628418 25.60166504 3.12109375 26.61328125 C3.66443359 27.69673828 4.20777344 28.78019531 4.76757812 29.89648438 C5.59418945 31.58741211 5.59418945 31.58741211 6.4375 33.3125 C12.64273957 46.94521896 12.64273957 46.94521896 24 56 C26.99297058 56.51062505 29.97092371 56.80862045 33 57 C33 57.33 33 57.66 33 58 C26.88971419 59.12700827 23.55065786 59.15378288 18 56 C15.24853726 55.74715633 15.24853726 55.74715633 13 56 C12.67 57.98 12.34 59.96 12 62 C8.20411134 61.45773019 6.52788007 59.79872437 4 57 C3.38125 57.66 2.7625 58.32 2.125 59 C0 61 0 61 -2 61 C-1.84015625 59.93007812 -1.6803125 58.86015625 -1.515625 57.7578125 C-0.81769867 52.13727816 -0.77776646 46.53241655 -0.75 40.875 C-0.729375 39.81667969 -0.70875 38.75835937 -0.6875 37.66796875 C-0.65941127 32.07128853 -0.66703081 27.75025982 -4 23 C-6.97951883 21.01365411 -8.03131624 20.68517525 -11.4375 20.375 C-12.19933594 20.30023438 -12.96117187 20.22546875 -13.74609375 20.1484375 C-15.82680886 20.011406 -17.91477747 20 -20 20 C-20.66 21.98 -21.32 23.96 -22 26 C-22.99 25.67 -23.98 25.34 -25 25 C-26.24266632 21.27200105 -26.52902513 17.87217006 -26 14 C-23.72828377 9.62484282 -21.12788339 6.67632 -17 4 C-14.23866047 3.71385083 -11.91854388 3.61410117 -9.1875 3.75 C-8.49462891 3.76804688 -7.80175781 3.78609375 -7.08789062 3.8046875 C-5.39132336 3.85148936 -3.69547524 3.92322376 -2 4 C-1.34 2.68 -0.68 1.36 0 0 Z " fill="#101010" transform="translate(199,153)"/>
<path d="M0 0 C-3.38013833 7.68213258 -6.91002272 11.63632906 -14.62109375 14.8046875 C-33.71916347 21.56076765 -54.60169265 26.44396908 -74 18 C-76.46616007 16.78336103 -78.69130285 15.50333768 -81 14 C-81 13.34 -81 12.68 -81 12 C-80.41323486 11.98018066 -79.82646973 11.96036133 -79.22192383 11.93994141 C-53.85300972 11.04842147 -28.84882599 9.62235383 -4.7734375 0.953125 C-2 0 -2 0 0 0 Z " fill="#0C0C0C" transform="translate(365,167)"/>
<path d="M0 0 C2 2.1875 2 2.1875 3 4 C1.68 4.99 0.36 5.98 -1 7 C-5 5 -5 5 -6.75 3.875 C-10.78808557 2.30463339 -14.84755009 2.22051197 -18.8984375 3.6875 C-24.10597627 6.41634128 -27.41244914 10.20288657 -30.3125 15.3125 C-31.66363387 20.59420512 -31.66940201 25.27868055 -29.6875 30.375 C-27.36217098 33.99217848 -26.11106523 35.62964492 -22 37 C-19.88253801 37.19561578 -19.88253801 37.19561578 -17.625 37.1875 C-16.87476563 37.20167969 -16.12453125 37.21585937 -15.3515625 37.23046875 C-12.44376661 36.94548543 -10.53175426 36.49352226 -8 35 C-6.74467197 32.15623685 -6.74467197 32.15623685 -6.1875 28.875 C-5.95417969 27.77929688 -5.72085938 26.68359375 -5.48046875 25.5546875 C-5.32191406 24.71164062 -5.16335938 23.86859375 -5 23 C-8.3 23 -11.6 23 -15 23 C-14.67 21.35 -14.34 19.7 -14 18 C-9.05 18 -4.1 18 1 18 C0.72327326 22.01253775 0.39387407 25.99881581 0 30 C-0.06445312 30.87785156 -0.12890625 31.75570312 -0.1953125 32.66015625 C-0.6294584 35.99417413 -1.06089204 38.17492657 -3.640625 40.44140625 C-10.20661153 43.9311065 -17.77246973 43.97899409 -25 43 C-30.75744683 40.91525423 -34.08139873 37.37022634 -37 32 C-39.22728794 25.31813617 -38.92843041 18.0946699 -36 11.6875 C-28.28195937 -1.87357704 -14.05824239 -6.90580328 0 0 Z " fill="#0E0E0E" transform="translate(286,361)"/>
<path d="M0 0 C8.887816 -0.3264912 19.02927751 -0.45541181 27.36279297 2.97167969 C36.72899905 6.62382374 47.34688886 6.38613099 57.25 6.625 C58.5924696 6.66330989 59.93491806 6.70236841 61.27734375 6.7421875 C64.51809976 6.83544667 67.75886466 6.92124464 71 7 C64.60405085 13.62633497 58.8985818 17.03897003 49.59765625 17.23828125 C30.30715662 17.56865383 15.06565825 15.31891526 0 2 C0 1.34 0 0.68 0 0 Z " fill="#090909" transform="translate(276,190)"/>
<path d="M0 0 C8.91 0 17.82 0 27 0 C27 1.98 27 3.96 27 6 C19.74 6 12.48 6 5 6 C4.34 10.29 3.68 14.58 3 19 C9.27 19 15.54 19 22 19 C22 20.65 22 22.3 22 24 C15.07 24 8.14 24 1 24 C1 26.31 1 28.62 1 31 C0.34 33.64 -0.32 36.28 -1 39 C6.59 39 14.18 39 22 39 C21.67 40.65 21.34 42.3 21 44 C11.43 44 1.86 44 -8 44 C-5.92655851 29.15852405 -3.1522185 14.65355627 0 0 Z " fill="#0F0F0F" transform="translate(301,359)"/>
<path d="M0 0 C1.4540625 0.0309375 1.4540625 0.0309375 2.9375 0.0625 C2.0087694 6.27709094 1.07269859 12.46802975 -0.1875 18.625 C-2.23800066 28.57888259 -2.23800066 28.57888259 0.18359375 37.8828125 C3.47746365 40.09828847 7.13216911 39.54486589 10.9375 39.0625 C14.28944204 37.75087051 15.53647844 36.70371677 17.4375 33.6640625 C19.48912541 28.73802441 20.23257561 23.81426156 21.0625 18.5625 C21.23136719 17.54285156 21.40023437 16.52320313 21.57421875 15.47265625 C22.0369859 12.67054648 22.48833778 9.86681591 22.9375 7.0625 C23.26947039 5.06227332 23.60194589 3.0621286 23.9375 1.0625 C25.9175 1.0625 27.8975 1.0625 29.9375 1.0625 C28.15182384 33.01994578 28.15182384 33.01994578 18.3125 42.625 C12.65124455 46.05154935 6.35670243 45.63817786 -0.0625 45.0625 C-3.31921831 43.90281986 -5.33466394 42.23667454 -7.18359375 39.25390625 C-11.50839326 28.47073948 -6.63849879 11.87934002 -4.0625 1.0625 C-3.0625 0.0625 -3.0625 0.0625 0 0 Z " fill="#0F0F0F" transform="translate(99.0625,357.9375)"/>
<path d="M0 0 C9.26033452 -0.98436627 15.04202957 1.47608916 23 6 C34.79564021 12.48601241 46.79875005 15.63930589 60 18 C52.47199028 23.79202472 46.396608 24.83217193 37 24 C22.67657579 21.77644126 10.48504405 15.04785544 1.22265625 3.8515625 C0 2 0 2 0 0 Z " fill="#0A0A0A" transform="translate(268,200)"/>
<path d="M0 0 C1.90197174 1.19892147 3.65963947 2.42784598 5.375 3.87890625 C4.5625 5.81640625 4.5625 5.81640625 3.375 7.87890625 C2.385 8.20890625 1.395 8.53890625 0.375 8.87890625 C-0.058125 8.40453125 -0.49125 7.93015625 -0.9375 7.44140625 C-4.18561256 4.43389462 -8.00338769 4.4686065 -12.21484375 4.55078125 C-16.53133217 5.13843932 -19.51250313 6.86790384 -22.625 9.87890625 C-26.62132874 15.35930853 -28.41713882 20.83330941 -28.0546875 27.61328125 C-27.39991631 31.06571116 -25.91375873 33.26318199 -23.625 35.87890625 C-18.96313458 38.98681653 -14.08543067 38.49761117 -8.625 37.87890625 C-6.10267184 36.81051679 -4.69556409 35.71940767 -2.625 33.87890625 C-1.305 34.53890625 0.015 35.19890625 1.375 35.87890625 C-0.47072689 40.33941289 -2.90979087 42.10297831 -7.25 44.06640625 C-14.32145994 45.76879475 -20.52544093 45.74443088 -26.9375 42.0859375 C-30.60021436 39.46607931 -32.9174571 35.98565499 -34.625 31.87890625 C-35.7357308 23.25028174 -34.84527959 15.95582108 -29.625 8.87890625 C-21.76456169 0.42147263 -11.61742907 -4.96161033 0 0 Z " fill="#0F0F0F" transform="translate(207.625,359.12109375)"/>
<path d="M0 0 C3.87250721 0.93474312 5.75323121 2.1772778 8.625 4.875 C6.315 6.525 4.005 8.175 1.625 9.875 C2.53209717 9.88901855 2.53209717 9.88901855 3.45751953 9.90332031 C6.2224788 9.95731722 8.98579906 10.04090394 11.75 10.125 C13.17699219 10.14626953 13.17699219 10.14626953 14.6328125 10.16796875 C20.55085465 10.37345632 24.11044583 10.93771669 28.625 14.875 C29.12 15.865 29.12 15.865 29.625 16.875 C28.62122314 16.87910889 27.61744629 16.88321777 26.58325195 16.88745117 C22.84608156 16.90928312 19.10995799 16.96361294 15.37329102 17.02758789 C13.75848451 17.05073286 12.14352779 17.06515543 10.52856445 17.07055664 C8.20168852 17.07987274 5.87716324 17.12091368 3.55078125 17.16796875 C2.83287918 17.1640361 2.11497711 17.16010345 1.37532043 17.15605164 C-2.50675427 17.26813872 -4.24340473 17.77055083 -7.31958008 20.2121582 C-9.62228849 23.19536768 -10.11544069 25.15464988 -10.375 28.875 C-13.345 28.875 -16.315 28.875 -19.375 28.875 C-20.48309111 20.74899852 -16.27807108 13.76413531 -11.5234375 7.39453125 C-5.03336903 -0.18642108 -5.03336903 -0.18642108 0 0 Z " fill="#070707" transform="translate(211.375,313.125)"/>
<path d="M0 0 C9.36808498 0.34065764 14.84053426 4.85166896 21.375 11.25 C28.45835455 17.87090624 37.35899496 21.77530166 46 26 C42.86328686 29.13671314 39.37033734 28.49784594 35.08911133 28.50195312 C24.19071028 28.16125711 14.51381061 21.57847335 7 14 C0 4.82585278 0 4.82585278 0 0 Z " fill="#090909" transform="translate(257,207)"/>
<path d="M0 0 C9.79274382 3.39317694 17.05622037 11.81012498 23.7109375 19.421875 C26.04718866 22.05314764 28.4903175 24.53465818 31 27 C24.83976469 27.72541089 20.25742697 27.81348512 15.1875 23.9375 C13.7571626 22.66268948 12.35879029 21.35081305 11 20 C10.43410156 19.44828125 9.86820313 18.8965625 9.28515625 18.328125 C4.78075122 13.51425703 0 6.74342132 0 0 Z " fill="#0C0C0C" transform="translate(245,215)"/>
<path d="M0 0 C0.95390625 -0.01417969 1.9078125 -0.02835937 2.890625 -0.04296875 C5.91246515 0.20059487 8.05088671 0.82358637 10.75 2.1875 C12.17041821 5.02833641 12.06452272 7.04227278 11.75 10.1875 C9.8829009 12.49025556 8.39352259 13.86573871 5.75 15.1875 C3.37597499 15.25866382 0.99999323 15.27159085 -1.375 15.25 C-2.65632812 15.24097656 -3.93765625 15.23195313 -5.2578125 15.22265625 C-6.73894531 15.20525391 -6.73894531 15.20525391 -8.25 15.1875 C-7.94257097 12.87432039 -7.62892298 10.56196648 -7.3125 8.25 C-7.13847656 6.96222656 -6.96445313 5.67445313 -6.78515625 4.34765625 C-5.94433744 -0.61747088 -4.70473827 0.03144879 0 0 Z " fill="#F6F6F6" transform="translate(147.25,381.8125)"/>
<path d="M0 0 C1.91595968 -0.08133791 3.83291932 -0.13934367 5.75 -0.1875 C7.35101563 -0.23970703 7.35101563 -0.23970703 8.984375 -0.29296875 C12.30027855 0.02917214 13.59016673 0.77148914 16 3 C15.8125 6.3125 15.8125 6.3125 15 10 C11.25324431 12.98654439 8.39674549 13.34274985 3.6875 13.1875 C2.08455078 13.14689453 2.08455078 13.14689453 0.44921875 13.10546875 C-0.76314453 13.05326172 -0.76314453 13.05326172 -2 13 C-1.85915204 11.20793453 -1.71216299 9.41635083 -1.5625 7.625 C-1.48128906 6.62726563 -1.40007812 5.62953125 -1.31640625 4.6015625 C-1 2 -1 2 0 0 Z " fill="#F5F5F5" transform="translate(145,364)"/>
<path d="M0 0 C1.98 0 3.96 0 6 0 C5.35704842 4.08379252 4.71014095 8.16694875 4.0625 12.25 C3.88009766 13.40886719 3.69769531 14.56773437 3.50976562 15.76171875 C3.33251953 16.87675781 3.15527344 17.99179687 2.97265625 19.140625 C2.72914429 20.68024902 2.72914429 20.68024902 2.48071289 22.25097656 C2.0804478 24.53994807 1.60283882 26.75753343 1 29 C-0.98 29 -2.96 29 -5 29 C-4.28272968 22.59741861 -3.17132555 16.32172104 -1.9375 10 C-1.75123047 9.03449219 -1.56496094 8.06898438 -1.37304688 7.07421875 C-0.91768657 4.71568591 -0.45995713 2.35763989 0 0 Z " fill="#111111" transform="translate(235,374)"/>
<path d="M0 0 C1.87939453 0.29492188 1.87939453 0.29492188 4 1 C5.4690718 3.49801682 6.68843141 5.87341812 7.875 8.5 C8.57546723 9.96414063 9.27988602 11.42639745 9.98828125 12.88671875 C10.33068848 13.59489746 10.6730957 14.30307617 11.02587891 15.03271484 C14.82486284 22.84230146 14.82486284 22.84230146 21.5 28 C24.67508199 28.90716628 27.72353419 29.600431 31 30 C30.67 30.66 30.34 31.32 30 32 C28.60190528 31.74109357 27.20657858 31.46722539 25.8125 31.1875 C25.03519531 31.03667969 24.25789063 30.88585937 23.45703125 30.73046875 C16.1515088 28.55855667 10.7001529 22.72657074 6.98828125 16.22900391 C5.67985672 13.71752697 4.43877222 11.18420022 3.25830078 8.61010742 C1.84661185 5.17106742 1.84661185 5.17106742 -1 3 C-0.67 2.01 -0.34 1.02 0 0 Z " fill="#1F1F1F" transform="translate(227,162)"/>
<path d="M0 0 C1.65 0.33 3.3 0.66 5 1 C5.042721 2.66611905 5.04063832 4.33382885 5 6 C4 7 4 7 1.4375 7.0625 C0.2309375 7.0315625 0.2309375 7.0315625 -1 7 C-1.625 5.1875 -1.625 5.1875 -2 3 C-1.34 2.01 -0.68 1.02 0 0 Z " fill="#1D1D1D" transform="translate(238,359)"/>
<path d="M0 0 C3.375 -0.125 3.375 -0.125 7 0 C7.66 0.66 8.32 1.32 9 2 C6.42786866 3.61949011 5.32330841 4.04408751 2.25 3.625 C1.5075 3.41875 0.765 3.2125 0 3 C0 2.01 0 1.02 0 0 Z " fill="#1B1B1B" transform="translate(201,162)"/>
<path d="M0 0 C0.9590625 0.4640625 0.9590625 0.4640625 1.9375 0.9375 C5.92049104 2.31935403 9.81650849 2.6536543 14 3 C14 3.33 14 3.66 14 4 C8.05542387 5.09644404 4.32006564 5.41029848 -1 2 C-0.67 1.34 -0.34 0.68 0 0 Z " fill="#242424" transform="translate(218,207)"/>
<path d="M0 0 C0.33 0 0.66 0 1 0 C1 2.64 1 5.28 1 8 C0.01 7.67 -0.98 7.34 -2 7 C-1.125 1.125 -1.125 1.125 0 0 Z " fill="#1D1D1D" transform="translate(331,34)"/>
</svg>
